HIERARCHY
ROOT Hips
{
	OFFSET 0.00000 0.00000 0.00000
	CHANNELS 6 Xposition Yposition Zposition Zrotation Yrotation Xrotation 
	JOINT LHipJoint
	{
		OFFSET 0 0 0
		CHANNELS 3 Zrotation Yrotation Xrotation
		JOINT LeftHip
		{
			OFFSET 1.36337 -1.57426 1.11036
			CHANNELS 3 Zrotation Yrotation Xrotation
			JOINT LeftKnee
			{
				OFFSET 2.38468 -6.55187 0.00000
				CHANNELS 3 Zrotation Yrotation Xrotation
				JOINT LeftAnkle
				{
					OFFSET 2.37166 -6.51609 0.00000
					CHANNELS 3 Zrotation Yrotation Xrotation
					JOINT LeftToe
					{
						OFFSET 0.29078 -0.79891 2.01393
						CHANNELS 3 Zrotation Yrotation Xrotation
						End Site
						{
							OFFSET 0.00000 -0.00000 1.07924
						}
					}
				}
			}
		}
	}
	JOINT RHipJoint
	{
		OFFSET 0 0 0
		CHANNELS 3 Zrotation Yrotation Xrotation
		JOINT RightHip
		{
			OFFSET -1.36349 -1.57426 1.11036
			CHANNELS 3 Zrotation Yrotation Xrotation
			JOINT RightKnee
			{
				OFFSET -2.29562 -6.30717 0.00000
				CHANNELS 3 Zrotation Yrotation Xrotation
				JOINT RightAnkle
				{
					OFFSET -2.40985 -6.62100 0.00000
					CHANNELS 3 Zrotation Yrotation Xrotation
					JOINT RightToe
					{
						OFFSET -0.23197 -0.63733 1.92232
						CHANNELS 3 Zrotation Yrotation Xrotation
						End Site
						{
							OFFSET -0.00000 -0.00000 1.01562
						}
					}
				}
			}
		}
	}
	JOINT lowerback
	{
		OFFSET 0 0 0
		CHANNELS 3 Zrotation Yrotation Xrotation
		JOINT Chest
		{
			OFFSET -0.08565 2.03602 -0.24562
			CHANNELS 3 Zrotation Yrotation Xrotation
			JOINT Chest2
			{
				OFFSET -0.00036 2.05693 0.00216
				CHANNELS 3 Zrotation Yrotation Xrotation
				JOINT lowerneck
				{
					OFFSET 0 0 0
					CHANNELS 3 Zrotation Yrotation Xrotation
					JOINT Neck
					{
						OFFSET -0.03664 1.69515 0.31789
						CHANNELS 3 Zrotation Yrotation Xrotation
						JOINT Head
						{
							OFFSET 0.00932 1.70181 -0.46013
							CHANNELS 3 Zrotation Yrotation Xrotation
							End Site
							{
								OFFSET 0.01243 1.77620 -0.19377
							}
						}
					}
				}
				JOINT LeftCollar
				{
					OFFSET 0 0 0
					CHANNELS 3 Zrotation Yrotation Xrotation
					JOINT LeftShoulder
					{
						OFFSET 3.74344 0.81315 -0.36647
CHANNELS 3 Zrotation Xrotation Yrotation
						JOINT LeftElbow
						{
OFFSET 0 -4.971850 -0.000000
CHANNELS 3 Zrotation Xrotation Yrotation
							JOINT LeftWrist
							{
OFFSET 0 -3.358110 0.000000
CHANNELS 3 Zrotation Xrotation Yrotation
								JOINT lhand
								{
									OFFSET 0 0 0
CHANNELS 3 Zrotation Xrotation Yrotation
									JOINT LFingers
									{
OFFSET 0 -0.622780 0.000000
CHANNELS 3 Zrotation Xrotation Yrotation
										End Site
										{
OFFSET 0 -0.502100 0.000000
										}
									}
								}
								JOINT LThumb
								{
OFFSET 0 0.000000 0.000000
CHANNELS 3 Zrotation Xrotation Yrotation
									End Site
									{
OFFSET 0 -0.509760 0.509760
									}
								}
							}
						}
					}
				}
				JOINT RightCollar
				{
					OFFSET 0 0 0
					CHANNELS 3 Zrotation Yrotation Xrotation
					JOINT RightShoulder
					{
						OFFSET -3.75385 0.50666 -0.06525
CHANNELS 3 Zrotation Xrotation Yrotation
						JOINT RightElbow
						{
OFFSET 0 -4.964930 -0.000000
CHANNELS 3 Zrotation Xrotation Yrotation
							JOINT RightWrist
							{
OFFSET 0 -3.349290 0.000000
CHANNELS 3 Zrotation Xrotation Yrotation
								JOINT rhand
								{
									OFFSET 0 0 0
CHANNELS 3 Zrotation Xrotation Yrotation
									JOINT RFingers
									{
OFFSET 0 -0.638040 0.000000
CHANNELS 3 Zrotation Xrotation Yrotation
										End Site
										{
OFFSET 0 -0.514410 0.000000
										}
									}
								}
								JOINT RThumb
								{
OFFSET 0 0.000000 0.000000
CHANNELS 3 Zrotation Xrotation Yrotation
									End Site
									{
OFFSET 0 -0.522260 0.522260
									}
								}
							}
						}
					}
				}
			}
		}
	}
}
MOTION
Frames: 6
Frame Time: 0.008333333333333333
-23.144500 16.298300 -0.436800 169.315000 73.671700 178.543000 0.000000 0.000000 0.000000 -13.570800 -13.074700 -10.295600 2.319300 9.501600 27.377500 2.342400 5.058700 -31.050900 0.154700 2.534400 6.985200 0.000000 0.000000 0.000000 13.913900 9.659200 -3.489300 -2.130200 -9.132100 26.209400 -6.062400 -17.082300 -53.624800 -1.044900 -6.500700 18.244200 -7.337800 -2.425800 -21.543400 1.229100 -1.376100 4.994000 4.989600 -1.472800 17.782300 11.219300 15.066300 -12.840300 -9.182500 22.562800 25.956300 -1.424600 10.354600 13.190100 0.000000 0.000000 0.000000 -1.220300 -6.336900 -28.288700 14.459400 -23.387600 3.008100 25.467000 -13.958000 12.060200 0.000000 0.000000 0.000000 -7.125000 0.000000 0.000000 -1.211000 16.667500 -0.813000 0.000000 0.000000 0.000000 -3.151100 -1.787300 15.785100 -14.065200 -22.827800 -2.853300 -10.655900 -0.642600 29.176000 0.000000 0.000000 0.000000 7.125000 0.000000 -0.000000 22.582700 58.123400 -7.499900
-23.179992 16.301217 -0.486226 173.583850 73.696342 182.745549 0.000000 0.000000 0.000000 -12.359876 -12.902852 -11.000597 2.490070 9.819450 28.394387 2.436686 4.332544 -31.272052 0.174272 2.689240 7.414836 0.000000 0.000000 0.000000 15.003109 9.489798 -3.028323 -1.936951 -8.732500 24.962657 -5.713004 -18.108820 -53.002507 -0.963501 -6.249687 17.510705 -4.892867 -1.695108 -20.735349 1.029299 -1.114088 4.134238 3.610029 -1.062197 16.719518 12.592152 15.674427 -11.285974 -9.549718 23.603658 26.142566 -1.620426 10.975910 13.335525 0.000000 0.000000 0.000000 -0.677337 -5.561861 -28.586275 14.322928 -23.194493 2.954130 24.779151 -13.204856 12.053297 0.000000 0.000000 0.000000 -7.125000 0.000000 0.000000 -1.688381 16.749029 -1.130670 0.000000 0.000000 0.000000 -2.487713 -0.550858 15.472114 -14.144134 -22.940392 -2.884078 -10.469569 -0.375770 29.194500 0.000000 0.000000 0.000000 7.125000 0.000000 0.000000 22.785330 58.100220 -7.558213
-23.211771 16.311856 -0.533900 177.668018 73.743200 186.852960 0.000000 0.000000 0.000000 -11.204433 -12.645385 -11.685883 2.627296 10.065209 29.188662 2.514086 3.673388 -31.436054 0.188623 2.795934 7.711320 0.000000 0.000000 0.000000 16.014099 9.430320 -2.655587 -1.767320 -8.362485 23.821186 -5.461608 -18.734724 -52.506933 -0.926497 -6.131779 17.167331 -2.468947 -1.014276 -19.910685 0.898550 -0.854297 3.522108 2.159462 -0.669093 15.375667 13.873173 16.194986 -9.786552 -9.999915 24.583474 26.208100 -1.841594 11.556683 13.456696 0.000000 0.000000 0.000000 -0.248945 -4.716841 -28.728852 14.282131 -23.136651 2.938050 24.379899 -12.745232 11.982727 0.000000 0.000000 0.000000 -7.125000 0.000000 0.000000 -1.962059 16.867573 -1.308960 0.000000 0.000000 0.000000 -1.915389 0.549786 15.152052 -14.166870 -22.972609 -2.892947 -9.352206 -0.539851 29.144160 0.000000 0.000000 0.000000 7.125000 0.000000 0.000000 23.879193 57.813162 -7.782295
-23.279248 16.329299 -0.579901 181.253025 73.316381 190.204389 0.000000 0.000000 0.000000 -10.221556 -12.527734 -12.190206 2.746091 10.271789 29.861782 2.514698 3.089937 -31.189270 0.202769 2.899284 7.998458 0.000000 0.000000 0.000000 16.887195 8.904028 -2.299216 -1.640663 -8.072796 22.935852 -5.191182 -19.262228 -51.897189 -0.883152 -5.989869 16.755180 -0.131221 -0.530873 -18.322008 0.759206 -0.757888 2.890751 0.705674 -0.404614 13.624512 14.706114 16.602821 -8.381249 -10.111123 25.338092 26.122907 -1.936767 12.037470 13.393201 0.000000 0.000000 0.000000 0.148678 -3.900043 -29.145039 14.287002 -23.143470 2.939978 23.910967 -12.873186 11.910600 0.000000 0.000000 0.000000 -7.125000 0.000000 0.000000 -2.284608 16.993748 -1.518210 0.000000 0.000000 0.000000 -1.420108 1.697873 15.345717 -14.265452 -23.112883 -2.931541 -9.373755 -0.563919 28.997774 0.000000 0.000000 0.000000 7.125000 0.000000 0.000000 23.752041 57.682903 -7.668089
-23.423273 16.327519 -0.546908 181.769654 70.701972 189.425087 0.000000 0.000000 0.000000 -9.765574 -12.804352 -12.254808 2.834667 10.422252 30.355329 2.255328 1.913171 -29.119638 0.180611 2.735222 7.542494 0.000000 0.000000 0.000000 17.386327 5.947435 -1.580894 -1.549155 -7.855603 22.276586 -5.009116 -19.563726 -51.456268 -0.868668 -5.942393 16.617430 -0.217449 -1.212881 -14.649149 1.147011 -1.717313 2.607979 0.974980 -0.868446 11.171076 14.885172 16.839109 -7.415484 -10.459795 25.942736 25.927018 -2.036447 12.356856 13.298267 0.000000 0.000000 0.000000 -0.288347 -3.640659 -29.096311 14.240915 -23.078019 2.921887 23.186409 -12.614472 11.810638 0.000000 0.000000 0.000000 -7.125000 0.000000 0.000000 -2.784929 17.173343 -1.840151 0.000000 0.000000 0.000000 -1.754402 2.232848 16.356262 -14.284709 -23.140242 -2.939112 -10.887022 -0.260525 28.284166 0.000000 0.000000 0.000000 7.125000 0.000000 0.000000 21.713025 57.351057 -6.785657
-23.469088 16.319751 -0.504340 182.078791 69.366956 189.090259 0.000000 0.000000 0.000000 -9.314620 -13.071065 -12.291511 2.900490 10.532109 30.717809 2.162616 1.237001 -28.285065 0.195294 2.843350 7.843103 0.000000 0.000000 0.000000 17.872221 4.486459 -1.133312 -1.485587 -7.700270 21.807408 -4.959096 -19.648923 -51.336600 -0.926453 -6.131253 17.165985 -0.703640 -1.504696 -13.332708 1.481096 -2.035778 2.669777 1.549857 -1.067832 10.486992 14.977000 16.970746 -7.036474 -10.789855 26.296809 25.776120 -2.119729 12.518526 13.286840 0.000000 0.000000 0.000000 -0.627750 -3.777584 -28.983684 14.216165 -23.042822 2.912206 22.979001 -12.298540 11.919025 0.000000 0.000000 0.000000 -7.125000 0.000000 0.000000 -2.934349 17.077167 -1.945820 0.000000 0.000000 0.000000 -1.936983 2.257387 17.039104 -14.351016 -23.234254 -2.965186 -11.783899 -0.321045 27.899612 0.000000 0.000000 0.000000 7.125000 0.000000 0.000000 20.541027 57.182757 -6.311145
